<svg width="80" height="80" viewBox="0 0 80 80" fill="none" xmlns="http://www.w3.org/2000/svg">
<path d="M67.6016 19.1171C67.5781 19.0937 62.8281 23.789 53.375 33.2265L46.7422 26.5937L60.875 12.4609C53.4375 7.98432 43.8828 9.13276 37.6875 15.3281C35.3193 17.6949 33.6151 20.6428 32.7457 23.8762C31.8764 27.1095 31.8725 30.5146 32.7344 33.7499L32.875 34.2734L10.7266 56.414C10.2422 56.8984 10.2422 57.6952 10.7266 58.1796L21.7734 69.2265C22.2578 69.7109 23.0547 69.7109 23.5391 69.2265L45.6719 47.0937L46.1953 47.2343C52.7344 48.9765 59.7578 47.164 64.6328 42.289C70.8359 36.0937 71.9844 26.539 67.6016 19.1171V19.1171Z" fill="#0000A1"/>
</svg>
