<svg width="80" height="80" viewBox="0 0 80 80" fill="none" xmlns="http://www.w3.org/2000/svg">
<path d="M52.7422 25.6484C50.4289 23.5902 47.6511 22.1234 44.6468 21.3737C41.6425 20.624 38.5013 20.6137 35.4922 21.3438C36.0234 22.0547 39.5156 26.8047 42.6641 32.5938C49.5 30.0313 52.3906 26.1406 52.7422 25.6484V25.6484ZM43.2812 43.1875C32.4453 46.9609 28.5469 54.4844 28.2031 55.1875C31.4609 57.7266 35.5547 59.2422 40 59.2422C42.6641 59.2422 45.2031 58.7031 47.5078 57.7187C47.2187 56.0312 46.1094 50.1563 43.4062 43.1406L43.2812 43.1875ZM47.0078 42.2578C49.5234 49.1641 50.5469 54.7891 50.7422 55.9609C55.0547 53.0469 58.125 48.4297 58.9766 43.0781C58.3203 42.875 53.0313 41.2969 47.0078 42.2578ZM40 5C20.6719 5 5 20.6719 5 40C5 59.3281 20.6719 75 40 75C59.3281 75 75 59.3281 75 40C75 20.6719 59.3281 5 40 5ZM40 62.5C27.5937 62.5 17.5 52.4063 17.5 40C17.5 27.5937 27.5937 17.5 40 17.5C52.4063 17.5 62.5 27.5937 62.5 40C62.5 52.4063 52.4063 62.5 40 62.5ZM44.1484 35.4531C44.5937 36.3672 45.0234 37.2969 45.4219 38.2344C45.5625 38.5625 45.7031 38.8906 45.8359 39.2266C52.2266 38.4219 58.5859 39.7109 59.2188 39.8438C59.1797 35.3047 57.5547 31.1406 54.8828 27.8672C54.4687 28.4219 51.25 32.5547 44.1484 35.4531V35.4531ZM38.9531 33.75C35.7656 28.0859 32.3359 23.3281 31.8281 22.6328C26.4531 25.1719 22.4297 30.125 21.1875 36.0859C22.0469 36.1016 29.9688 36.1406 38.9531 33.75ZM41.3438 40.1953C41.5938 40.1172 41.8438 40.0391 42.1016 39.9688C41.6172 38.875 41.0938 37.7812 40.5469 36.7109C30.9531 39.5859 21.6328 39.4609 20.7969 39.4453C20.7891 39.6406 20.7891 39.8359 20.7891 40.0313C20.7891 44.9688 22.6562 49.4766 25.7266 52.8828C26.1562 52.1328 31.4297 43.3984 41.3438 40.1953V40.1953Z" fill="#0000A1"/>
</svg>
