<svg width="80" height="80" viewBox="0 0 80 80" fill="none" xmlns="http://www.w3.org/2000/svg">
<path d="M39.9687 5.96082C20.6484 5.95301 5 21.5936 5 40.8984C5 56.164 14.7891 69.1406 28.4219 73.9062C30.2578 74.3671 29.9766 73.0624 29.9766 72.1718V66.1171C19.375 67.3593 18.9453 60.3437 18.2344 59.1718C16.7969 56.7187 13.3984 56.0937 14.4141 54.9218C16.8281 53.6796 19.2891 55.2343 22.1406 59.4452C24.2031 62.4999 28.2266 61.9843 30.2656 61.4765C30.7109 59.6406 31.6641 57.9999 32.9766 56.7265C21.9922 54.7577 17.4141 48.0546 17.4141 40.0858C17.4141 36.2187 18.6875 32.664 21.1875 29.7968C19.5937 25.0702 21.3359 21.0233 21.5703 20.4218C26.1094 20.0155 30.8281 23.6718 31.1953 23.9608C33.7734 23.2655 36.7187 22.8983 40.0156 22.8983C43.3281 22.8983 46.2812 23.2811 48.8828 23.9843C49.7656 23.3124 54.1406 20.1718 58.3594 20.5546C58.5859 21.1561 60.2891 25.1093 58.7891 29.7733C61.3203 32.6483 62.6094 36.2343 62.6094 40.1093C62.6094 48.0937 58 54.8046 46.9844 56.7421C47.9279 57.67 48.6771 58.7766 49.1881 59.9973C49.6992 61.2179 49.9619 62.5282 49.9609 63.8515V72.6406C50.0234 73.3437 49.9609 74.039 51.1328 74.039C64.9687 69.3749 74.9297 56.3046 74.9297 40.9062C74.9297 21.5936 59.2734 5.96082 39.9687 5.96082V5.96082Z" fill="#0000A1"/>
</svg>
