<svg width="80" height="80" viewBox="0 0 80 80" fill="none" xmlns="http://www.w3.org/2000/svg">
<path d="M78.81 16.4568C76.0266 17.6902 73.0366 18.5235 69.8933 18.9002C73.1366 16.9595 75.5631 13.9051 76.72 10.3068C73.6728 12.1168 70.3378 13.3908 66.86 14.0735C64.5212 11.5764 61.4235 9.92126 58.0477 9.36509C54.6719 8.80891 51.2069 9.38281 48.1907 10.9977C45.1746 12.6126 42.7759 15.178 41.3671 18.2959C39.9584 21.4137 39.6184 24.9093 40.4 28.2402C34.2256 27.9302 28.1854 26.3253 22.6714 23.5299C17.1574 20.7344 12.2928 16.8107 8.39329 12.0135C7.05996 14.3135 6.29329 16.9802 6.29329 19.8202C6.2918 22.3768 6.9214 24.8943 8.12622 27.1493C9.33104 29.4043 11.0738 31.327 13.2 32.7468C10.7342 32.6684 8.32287 32.0021 6.16662 30.8035V31.0035C6.16638 34.5893 7.40673 38.0648 9.67723 40.8402C11.9477 43.6156 15.1085 45.5199 18.6233 46.2302C16.3359 46.8492 13.9377 46.9404 11.61 46.4968C12.6016 49.5822 14.5333 52.2803 17.1345 54.2133C19.7358 56.1463 22.8763 57.2174 26.1166 57.2768C20.6161 61.5949 13.8229 63.9371 6.82996 63.9268C5.59123 63.9272 4.35355 63.8548 3.12329 63.7102C10.2215 68.2741 18.4844 70.6962 26.9233 70.6868C55.49 70.6868 71.1066 47.0268 71.1066 26.5068C71.1066 25.8402 71.09 25.1668 71.06 24.5002C74.0976 22.3034 76.7197 19.5832 78.8033 16.4668L78.81 16.4568V16.4568Z" fill="#0000A1"/>
</svg>
