<svg width="80" height="80" viewBox="0 0 80 80" fill="none" xmlns="http://www.w3.org/2000/svg">
<path d="M24.5833 55.9366L28.7499 50.73L15.3366 40L28.7499 29.27L24.5833 24.0633L7.9166 37.3966C7.52609 37.7089 7.21083 38.105 6.99418 38.5557C6.77753 39.0063 6.66504 39.4999 6.66504 40C6.66504 40.5 6.77753 40.9936 6.99418 41.4442C7.21083 41.8949 7.52609 42.291 7.9166 42.6033L24.5833 55.9366ZM55.4166 24.0633L51.2499 29.27L64.6633 40L51.2499 50.73L55.4166 55.9366L72.0833 42.6033C72.4738 42.291 72.789 41.8949 73.0057 41.4442C73.2223 40.9936 73.3348 40.5 73.3348 40C73.3348 39.4999 73.2223 39.0063 73.0057 38.5557C72.789 38.105 72.4738 37.7089 72.0833 37.3966L55.4166 24.0633Z" fill="#0000A1"/>
<path d="M49.92 10.72L36.5867 70.72L30.0767 69.2733L43.41 9.27332L49.92 10.72Z" fill="#0000A1"/>
</svg>
