<svg width="80" height="80" viewBox="0 0 80 80" fill="none" xmlns="http://www.w3.org/2000/svg">
<path d="M40 29.5859C34.2656 29.5859 29.5859 34.2656 29.5859 40C29.5859 45.7344 34.2656 50.4141 40 50.4141C45.7344 50.4141 50.4141 45.7344 50.4141 40C50.4141 34.2656 45.7344 29.5859 40 29.5859ZM71.2344 40C71.2344 35.6875 71.2734 31.4141 71.0313 27.1094C70.7891 22.1094 69.6484 17.6719 65.9922 14.0156C62.3281 10.3516 57.8984 9.21875 52.8984 8.97657C48.5859 8.73438 44.3125 8.77344 40.0078 8.77344C35.6953 8.77344 31.4219 8.73438 27.1172 8.97657C22.1172 9.21875 17.6797 10.3594 14.0234 14.0156C10.3594 17.6797 9.22657 22.1094 8.98438 27.1094C8.74219 31.4219 8.78125 35.6953 8.78125 40C8.78125 44.3047 8.74219 48.5859 8.98438 52.8906C9.22657 57.8906 10.3672 62.3281 14.0234 65.9844C17.6875 69.6484 22.1172 70.7813 27.1172 71.0234C31.4297 71.2656 35.7031 71.2266 40.0078 71.2266C44.3203 71.2266 48.5938 71.2656 52.8984 71.0234C57.8984 70.7813 62.3359 69.6406 65.9922 65.9844C69.6563 62.3203 70.7891 57.8906 71.0313 52.8906C71.2813 48.5859 71.2344 44.3125 71.2344 40V40ZM40 56.0234C31.1328 56.0234 23.9766 48.8672 23.9766 40C23.9766 31.1328 31.1328 23.9766 40 23.9766C48.8672 23.9766 56.0234 31.1328 56.0234 40C56.0234 48.8672 48.8672 56.0234 40 56.0234ZM56.6797 27.0625C54.6094 27.0625 52.9375 25.3906 52.9375 23.3203C52.9375 21.25 54.6094 19.5781 56.6797 19.5781C58.75 19.5781 60.4219 21.25 60.4219 23.3203C60.4225 23.8119 60.3261 24.2988 60.1383 24.7531C59.9504 25.2074 59.6748 25.6202 59.3272 25.9678C58.9796 26.3154 58.5668 26.5911 58.1125 26.7789C57.6582 26.9667 57.1713 27.0631 56.6797 27.0625V27.0625Z" fill="#0000A1"/>
</svg>
