<svg width="80" height="80" viewBox="0 0 80 80" fill="none" xmlns="http://www.w3.org/2000/svg">
<path fill-rule="evenodd" clip-rule="evenodd" d="M3.33325 9.45993C3.33325 7.83503 3.97874 6.27669 5.12771 5.12772C6.27669 3.97875 7.83503 3.33326 9.45992 3.33326H70.5333C71.3385 3.33194 72.1361 3.48947 72.8804 3.79682C73.6247 4.10416 74.3011 4.55529 74.8708 5.12438C75.4405 5.69347 75.8923 6.36934 76.2005 7.11329C76.5086 7.85725 76.667 8.65468 76.6666 9.45993V70.5333C76.6675 71.3387 76.5095 72.1363 76.2018 72.8807C75.8941 73.625 75.4427 74.3013 74.8733 74.871C74.304 75.4406 73.6279 75.8924 72.8837 76.2006C72.1396 76.5087 71.342 76.667 70.5366 76.6666H9.45992C8.65507 76.6666 7.85812 76.508 7.11458 76.1999C6.37104 75.8918 5.69549 75.4402 5.12653 74.871C4.55758 74.3017 4.10636 73.6259 3.79866 72.8822C3.49096 72.1385 3.33281 71.3414 3.33325 70.5366V9.45993ZM32.3599 31.2933H42.2899V36.2799C43.7233 33.4133 47.3899 30.8333 52.8999 30.8333C63.4633 30.8333 65.9666 36.5433 65.9666 47.0199V66.4266H55.2766V49.4066C55.2766 43.4399 53.8433 40.0733 50.2033 40.0733C45.1533 40.0733 43.0533 43.7033 43.0533 49.4066V66.4266H32.3599V31.2933ZM14.0266 65.9699H24.7199V30.8333H14.0266V65.9666V65.9699ZM26.2499 19.3733C26.2701 20.2888 26.1072 21.1992 25.7707 22.051C25.4343 22.9027 24.9311 23.6787 24.2907 24.3334C23.6503 24.988 22.8856 25.5082 22.0414 25.8633C21.1973 26.2184 20.2907 26.4013 19.3749 26.4013C18.4591 26.4013 17.5526 26.2184 16.7084 25.8633C15.8643 25.5082 15.0995 24.988 14.4592 24.3334C13.8188 23.6787 13.3156 22.9027 12.9791 22.051C12.6427 21.1992 12.4798 20.2888 12.4999 19.3733C12.5395 17.5761 13.2812 15.8659 14.5662 14.6089C15.8512 13.3519 17.5773 12.648 19.3749 12.648C21.1725 12.648 22.8986 13.3519 24.1836 14.6089C25.4686 15.8659 26.2104 17.5761 26.2499 19.3733V19.3733Z" fill="#0000A1"/>
</svg>
