<svg width="80" height="80" viewBox="0 0 80 80" fill="none" xmlns="http://www.w3.org/2000/svg">
<path d="M40 5.01005V17.51C40 18.1731 40.2634 18.809 40.7322 19.2778C41.2011 19.7467 41.837 20.01 42.5 20.01C43.163 20.01 43.7989 19.7467 44.2678 19.2778C44.7366 18.809 45 18.1731 45 17.51V5.01005H50V22.48C50 23.1431 50.2634 23.779 50.7322 24.2478C51.2011 24.7167 51.837 24.98 52.5 24.98C53.163 24.98 53.7989 24.7167 54.2678 24.2478C54.7366 23.779 55 23.1431 55 22.48V5.01005H62.5V35H17.5V5.01005H40Z" fill="#39BAE8"/>
<path d="M17.5 40V42.5C17.5 45.1522 18.5536 47.6957 20.4289 49.5711C22.3043 51.4464 24.8478 52.5 27.5 52.5H32.5V67.495C32.5 69.4841 33.2902 71.3918 34.6967 72.7983C36.1032 74.2048 38.0109 74.995 40 74.995C41.9891 74.995 43.8968 74.2048 45.3033 72.7983C46.7098 71.3918 47.5 69.4841 47.5 67.495V52.495H52.5C55.1522 52.495 57.6957 51.4414 59.5711 49.5661C61.4464 47.6907 62.5 45.1472 62.5 42.495V40H17.5Z" fill="#39BAE8"/>
</svg>
